<svg xmlns="http://www.w3.org/2000/svg" width="93.667" height="81.667" viewBox="0 0 93.667 81.667"><path fill="#FFF" d="M68.756 81.222l.02-16.206h3.567l-12.73-12.99-12.57 12.99h3.44v16.206L37.29 81.18V70.607l8.46 1.054-6.232-12.57 3.578 2.147-5.805-13.13 2.753 1.95-4.61-15.145-4.398 15.145 2.58-1.95-5.625 13.13 3.63-2.23-6.294 12.652 8.29-1.054v10.614h-7.96l.01.058H78.39l.02-.058h-9.654zm-6.053 0h-6.21V69.475h6.21v11.747z"/><path fill="#5F89C6" d="M47.043.79L.963 81.223h32.652V70.608l-8.29 1.054L31.62 59.01l-3.63 2.23 5.625-13.13-2.58 1.95 4.4-15.144 4.608 15.144-2.752-1.95 5.806 13.13-3.578-2.15 6.23 12.572-8.457-1.054v10.57l13.193.044V65.016h-3.44l12.57-12.99 12.73 12.99h-3.566l-.02 16.206h24.317"/><path fill="#5F89C6" d="M56.492 69.475h6.21v11.747h-6.21z"/></svg>