<svg xmlns="http://www.w3.org/2000/svg" width="338" height="341.333" viewBox="0 0 338 341.333"><path fill="#036181" d="M326.098 115.336c-7.82-23.587-21.197-44.847-40.13-63.78-21.91-21.91-46.894-36.373-74.95-43.387 8.192 35.194 17.504 68.806 27.932 100.835 29.67.434 58.72 2.546 87.148 6.33M304.218 264.31c20.112-27.746 30.167-59.684 30.167-95.81 0-12.786-1.273-25.045-3.818-36.777-28.18-3.35-56.765-5.058-85.75-5.12 17.006 49.783 36.807 95.683 59.4 137.707M26.85 154.535l-2.42-22.72c21.85-4.778 43.418-8.782 64.71-12.01C110.8 79.708 136.25 40.85 165.487 3.236 121.292 4.042 83.49 20.15 52.083 51.558 19.805 83.835 3.667 122.816 3.667 168.5c0 33.954 8.907 64.183 26.722 90.69 12.227-39.665 27.714-78.272 46.46-115.828-16.574 3.228-33.24 6.952-50 11.173M134.762 113.847c19.18-2.05 38.143-3.445 56.89-4.19-5.153-22.78-9.84-46.368-14.06-70.762-15.953 25.636-30.23 50.62-42.83 74.952M195.84 128c-23.648 1.366-47.608 3.817-71.878 7.355-28.49 58.97-46.74 114.06-54.747 165.268 28.677 22.16 61.947 33.24 99.81 33.24 32.65 0 61.886-8.227 87.71-24.676C232.4 256.427 212.104 196.03 195.84 128"/></svg>