<svg xmlns="http://www.w3.org/2000/svg" width="273" height="273.01" viewBox="0 0 273 273.01"><circle fill="#345" cx="137.02" cy="134.92" r="95.424"/><path fill="#345" d="M136.5 0C61.23 0 0 61.24 0 136.51c0 75.26 61.23 136.5 136.5 136.5 75.27 0 136.5-61.24 136.5-136.5C273 61.24 211.77 0 136.5 0zm114.77 148.946c.862.892 2.308 2.37 2.233 2.968-.082.615-1.875 1.69-2.95 2.334-1.903 1.13-3.86 2.298-4.22 4.117-.358 1.84 1.012 3.677 2.346 5.458.742.983 1.984 2.646 1.827 3.236-.157.596-2.078 1.424-3.227 1.91-2.03.872-4.136 1.774-4.73 3.547-.6 1.765.52 3.76 1.606 5.698.606 1.084 1.627 2.896 1.397 3.455-.24.58-2.252 1.14-3.456 1.48-2.132.596-4.33 1.212-5.156 2.885-.825 1.683.03 3.807.847 5.864.46 1.158 1.232 3.08.92 3.612-.314.542-2.372.835-3.604 1.01-2.196.313-4.458.644-5.495 2.188-1.038 1.563-.48 3.777.073 5.928.305 1.204.81 3.226.434 3.713-.377.49-2.453.516-3.694.525-2.215.026-4.503.055-5.744 1.46-1.222 1.397-.956 3.668-.7 5.865.157 1.24.397 3.308-.046 3.75-.036.045-.294.247-1.305.247-.717 0-1.553-.1-2.436-.202-.92-.11-1.885-.23-2.767-.23-.873 0-2.16.103-3.106.93-1.397 1.23-1.425 3.52-1.452 5.734-.018 1.24-.037 3.326-.524 3.703-.045.026-.2.12-.668.12-.81 0-1.95-.287-3.052-.57-1.27-.313-2.574-.653-3.73-.653-.883 0-1.6.193-2.188.588-1.546 1.03-1.867 3.3-2.188 5.488-.174 1.24-.47 3.31-1.002 3.61-.064.038-.193.066-.35.066-.8 0-2.058-.508-3.272-.984-1.452-.59-2.96-1.186-4.3-1.186-.58 0-1.113.11-1.573.34-1.664.826-2.278 3.024-2.876 5.155-.34 1.205-.9 3.207-1.47 3.447-.046.02-.11.026-.184.026-.754 0-2.096-.753-3.28-1.415-1.554-.873-3.153-1.773-4.643-1.773-.377 0-.734.055-1.065.165-1.755.606-2.656 2.702-3.53 4.726-.495 1.148-1.314 3.07-2.01 3.242-.7 0-2.06-1.02-3.145-1.838-1.783-1.332-3.666-2.71-5.47-2.353-1.81.366-2.977 2.325-4.106 4.22-.644 1.074-1.71 2.875-2.36 2.967-.654 0-2.033-1.35-2.943-2.24-1.59-1.555-3.226-3.153-5.1-3.043-1.857.12-3.273 1.91-4.642 3.648-.772.983-2.068 2.628-2.693 2.628-.635 0-1.93-1.654-2.703-2.637-1.37-1.73-2.775-3.52-4.632-3.64-.064-.01-.13-.01-.193-.01-1.792 0-3.382 1.553-4.917 3.05-.45.44-1.03 1.003-1.57 1.453-.543.44-1.05.78-1.39.78-.624-.083-1.69-1.875-2.333-2.95-1.13-1.9-2.297-3.86-4.126-4.228-.193-.036-.396-.057-.607-.057-1.637 0-3.263 1.223-4.835 2.4-1.093.816-2.445 1.828-3.235 1.828h-.01c-.605-.156-1.423-2.068-1.92-3.217-.873-2.03-1.774-4.127-3.53-4.726-.33-.12-.688-.173-1.065-.173-1.49 0-3.088.9-4.64 1.773-1.187.662-2.53 1.415-3.282 1.415-.074 0-.138-.01-.184-.027-.57-.24-1.14-2.25-1.472-3.455-.597-2.123-1.223-4.32-2.886-5.146-.46-.23-.983-.34-1.572-.34-1.333 0-2.84.597-4.292 1.176-1.213.485-2.463.982-3.262.982-.157 0-.285-.02-.358-.063-.533-.303-.827-2.37-1.01-3.603-.314-2.19-.635-4.46-2.188-5.497-.588-.386-1.305-.58-2.188-.58-1.158 0-2.463.342-3.73.654-1.104.284-2.234.57-3.052.57-.46 0-.625-.094-.662-.12-.487-.377-.515-2.465-.533-3.704-.018-2.224-.045-4.513-1.452-5.735-.937-.836-2.224-.928-3.115-.928-.882 0-1.838.11-2.766.22-.882.11-1.72.203-2.436.203-1.002 0-1.26-.202-1.296-.24-.44-.44-.193-2.517-.046-3.758.257-2.188.533-4.458-.7-5.854-1.22-1.406-3.51-1.435-5.725-1.46-1.25-.012-3.337-.037-3.714-.534-.376-.487.138-2.51.44-3.713.543-2.14 1.113-4.356.075-5.92-1.038-1.542-3.308-1.874-5.495-2.186-1.23-.175-3.3-.47-3.612-1.01-.303-.525.47-2.455.93-3.614.826-2.058 1.67-4.182.844-5.863-.827-1.673-3.023-2.29-5.156-2.886-1.194-.34-3.207-.9-3.445-1.48-.24-.56.78-2.37 1.388-3.455 1.084-1.94 2.206-3.943 1.6-5.717-.598-1.756-2.694-2.658-4.725-3.52-1.14-.497-3.06-1.316-3.226-1.922-.156-.588 1.084-2.25 1.83-3.243 1.332-1.773 2.71-3.61 2.343-5.45-.358-1.82-2.325-2.986-4.218-4.117-1.075-.644-2.876-1.72-2.96-2.334-.072-.597 1.37-2.077 2.244-2.968 1.554-1.59 3.163-3.236 3.043-5.11-.12-1.848-1.912-3.263-3.64-4.624-.992-.77-2.637-2.067-2.637-2.7 0-.634 1.645-1.93 2.628-2.702 1.737-1.36 3.53-2.775 3.65-4.632.12-1.875-1.49-3.51-3.043-5.1-.863-.882-2.315-2.372-2.242-2.968.083-.625 1.884-1.7 2.96-2.344 1.9-1.12 3.86-2.288 4.217-4.108.368-1.838-1.01-3.676-2.344-5.458-.743-.993-1.984-2.647-1.828-3.235.166-.607 2.086-1.434 3.235-1.92 2.02-.874 4.117-1.774 4.714-3.53.607-1.773-.514-3.778-1.598-5.708-.606-1.086-1.627-2.896-1.388-3.466.24-.58 2.25-1.15 3.456-1.48 2.123-.597 4.32-1.212 5.146-2.875.827-1.683-.02-3.806-.845-5.865-.458-1.158-1.23-3.087-.918-3.63.313-.532 2.38-.827 3.612-1 2.187-.314 4.448-.644 5.486-2.188 1.04-1.553.47-3.768-.074-5.918-.303-1.206-.817-3.227-.44-3.714.376-.487 2.462-.515 3.712-.533 2.215-.028 4.494-.056 5.726-1.452 1.24-1.405.965-3.684.708-5.88-.147-1.24-.395-3.3.037-3.74.036-.038.293-.25 1.295-.25.726 0 1.562.102 2.444.212.927.11 1.892.23 2.774.23s2.16-.102 3.107-.93c1.398-1.23 1.425-3.52 1.453-5.725.01-1.25.037-3.336.533-3.713.037-.028.202-.128.662-.128.81 0 1.95.293 3.042.57 1.26.32 2.564.652 3.722.652.892 0 1.608-.193 2.197-.588 1.552-1.03 1.874-3.3 2.186-5.487.184-1.23.478-3.3 1.01-3.61.074-.038.203-.057.36-.057.798 0 2.048.496 3.252.983 1.46.578 2.968 1.176 4.3 1.176.58 0 1.113-.11 1.564-.34 1.672-.818 2.298-3.023 2.895-5.147.33-1.205.9-3.218 1.47-3.457.046-.018.11-.027.185-.027.753 0 2.095.754 3.28 1.425 1.554.865 3.162 1.774 4.642 1.774.377 0 .726-.056 1.057-.175 1.765-.598 2.667-2.693 3.54-4.725.496-1.148 1.313-3.07 2.003-3.244.708 0 2.068 1.02 3.16 1.84 1.775 1.332 3.66 2.7 5.45 2.342 1.82-.358 2.988-2.315 4.118-4.208.644-1.076 1.71-2.877 2.363-2.96.644 0 2.022 1.352 2.932 2.243 1.535 1.498 3.125 3.05 4.917 3.05.064 0 .13 0 .202-.01 1.848-.127 3.253-1.91 4.613-3.638.782-.984 2.078-2.64 2.71-2.64.626 0 1.92 1.646 2.703 2.63 1.36 1.736 2.776 3.52 4.633 3.647 1.83.12 3.51-1.49 5.1-3.042.46-.442 1.03-1.002 1.572-1.452.542-.442 1.058-.782 1.397-.782.626.075 1.7 1.876 2.335 2.952 1.13 1.893 2.297 3.85 4.115 4.218.194.037.396.055.607.055 1.636 0 3.27-1.223 4.853-2.408 1.084-.818 2.434-1.83 3.217-1.83h.01c.605.167 1.433 2.088 1.93 3.236.87 2.03 1.773 4.127 3.527 4.733.33.11.69.165 1.058.165 1.488 0 3.097-.91 4.65-1.772 1.186-.67 2.527-1.425 3.29-1.425.073 0 .137.01.175.027.578.24 1.14 2.252 1.48 3.456.596 2.132 1.21 4.33 2.876 5.147.45.23.98.34 1.562.34 1.342 0 2.85-.598 4.3-1.177 1.215-.487 2.473-.983 3.273-.983.157 0 .286.02.35.056.544.31.837 2.38 1.012 3.62.313 2.187.634 4.448 2.18 5.478.587.396 1.305.588 2.195.588 1.158 0 2.464-.33 3.73-.652 1.094-.276 2.235-.57 3.044-.57.47 0 .626.1.67.128.488.377.518 2.462.525 3.713.027 2.206.056 4.494 1.46 5.735.94.818 2.225.92 3.1.92.88 0 1.846-.12 2.765-.23.883-.102 1.73-.203 2.445-.203.983 0 1.25.194 1.314.25.43.43.183 2.5.036 3.74-.267 2.196-.533 4.466.69 5.872 1.24 1.406 3.527 1.433 5.742 1.46 1.24.01 3.326.037 3.694.524.377.487-.127 2.508-.43 3.713-.554 2.15-1.114 4.366-.074 5.918 1.037 1.553 3.3 1.875 5.494 2.187 1.23.175 3.3.48 3.603 1.01.313.525-.46 2.464-.92 3.613-.817 2.068-1.67 4.19-.845 5.873.828 1.672 3.034 2.288 5.165 2.886 1.195.34 3.207.9 3.437 1.46.24.57-.78 2.39-1.388 3.475-1.085 1.93-2.205 3.923-1.607 5.697.597 1.765 2.7 2.665 4.724 3.538 1.15.487 3.08 1.314 3.237 1.92.156.59-1.086 2.244-1.82 3.236-1.332 1.783-2.71 3.622-2.353 5.46.36 1.82 2.315 2.986 4.21 4.117 1.074.634 2.877 1.71 2.96 2.325.073.606-1.37 2.086-2.243 2.978-1.55 1.59-3.152 3.226-3.032 5.1.12 1.857 1.912 3.264 3.64 4.632.982.77 2.63 2.068 2.63 2.702 0 .634-1.647 1.93-2.63 2.7-1.728 1.36-3.52 2.777-3.64 4.623-.12 1.882 1.488 3.528 3.04 5.12z"/><g fill="#FFF"><path d="M153.963 161.5h7.656v15.623h-7.657z"/><path d="M179.297 157.674c.112-.256.057-.562-.152-.756L159.233 136.6c-.127-.136-.307-.207-.487-.207-.226.012-.377.07-.503.208l-19.66 20.318c-.193.194-.25.5-.14.756.112.265.362.43.642.43h4.68v23.947l-19.24-.054V166.94l12.453 1.55c.25.03.503-.082.657-.294.142-.207.168-.473.056-.712l-8.697-17.52 3.56 2.124c.266.163.602.123.825-.07.224-.196.293-.532.168-.81l-8.057-18.21 2.233 1.58c.25.168.572.168.824 0 .237-.185.335-.49.25-.77l-7.204-23.678c-.084-.293-.364-.505-.67-.505-.308 0-.572.21-.67.505l-6.87 23.677c-.084.293.013.604.266.77.25.18.57.17.822-.016l1.94-1.466-7.762 18.123c-.126.282-.056.604.182.8.223.21.56.224.824.07l3.588-2.206-8.753 17.604c-.11.23-.098.505.057.712.153.212.39.325.656.295l12.188-1.55v15.11H68.214l70.87-123.695 70.792 123.693H173.74l.027-23.946h4.885c.284.002.534-.163.645-.428z"/></g></svg>