<svg xmlns="http://www.w3.org/2000/svg" xmlns:xlink="http://www.w3.org/1999/xlink" width="63.127" height="20.404" viewBox="0 0 63.127 20.404"><path fill="#FFF9A6" d="M.467.466H62.66V19.94H.468z"/><path fill-rule="evenodd" clip-rule="evenodd" fill="#00765A" d="M57.44 7.897c-.286 0-.494.116-.626.354-.062.11-.095.232-.095.365 0 .126.032.245.094.356.132.238.34.357.626.357.277 0 .484-.12.615-.356.064-.11.097-.23.097-.355 0-.138-.032-.262-.097-.373-.14-.23-.345-.345-.615-.345m2.196 3.408c.02-.172.037-.346.046-.522.02-.412.01-.818-.03-1.218h-.45c0 .917-.32 1.694-.968 2.334-.645.642-1.422.96-2.334.96s-1.69-.318-2.336-.96c-.645-.64-.97-1.418-.97-2.335h-.806c0 1.14.402 2.107 1.205 2.91.805.805 1.773 1.207 2.906 1.207s2.1-.402 2.9-1.206c.36-.357.638-.748.836-1.17m-1.832 4.2c.334-.39.63-.813.882-1.265-.824.566-1.765.85-2.818.85-1.392 0-2.585-.497-3.577-1.485-.99-.986-1.49-2.18-1.49-3.574 0-1.39.5-2.584 1.49-3.575.993-.993 2.187-1.49 3.578-1.49.745 0 1.435.143 2.064.426-.314-.388-.664-.747-1.046-1.07-.328-.055-.668-.083-1.02-.083-1.596 0-2.96.567-4.095 1.7s-1.698 2.498-1.698 4.095c0 1.595.565 2.96 1.7 4.093 1.133 1.133 2.498 1.7 4.095 1.7.69 0 1.335-.107 1.937-.318m-3.51-7.61c-.28 0-.485.116-.617.354-.063.11-.094.232-.094.365 0 .12.028.234.086.34.137.25.343.373.624.373.272 0 .48-.114.615-.34.07-.116.1-.24.1-.373s-.027-.254-.093-.364c-.135-.236-.345-.353-.623-.353M41.524 15.187c.805.424 1.693.635 2.67.635.112 0 .223-.002.332-.008l1.02-.553-.164-.302c-.377.088-.773.13-1.187.13-.667 0-1.287-.112-1.862-.34l-.81.44"/><path fill-rule="evenodd" clip-rule="evenodd" fill="#00765A" d="M45.767 7.896c-.285 0-.498.122-.64.37-.053.116-.08.232-.08.348 0 .127.032.245.095.356.133.237.34.355.625.355.28 0 .486-.118.615-.355.065-.11.098-.23.098-.356 0-.148-.035-.27-.105-.373-.136-.23-.338-.344-.608-.344m-1.936 2.262c-.007.282 0 .563.022.837.117-.012.236-.018.36-.018.66 0 1.267.175 1.816.527.548.35.944.808 1.192 1.378l.73-.263c-.31-.74-.802-1.342-1.485-1.798-.683-.456-1.435-.682-2.254-.682-.128.002-.254.007-.38.018m1.976 5.45c.924-.257 1.752-.753 2.48-1.484 1.135-1.134 1.7-2.5 1.7-4.094 0-1.597-.565-2.962-1.7-4.095-.595-.597-1.257-1.038-1.984-1.32-.192.185-.377.377-.552.58.75.237 1.425.656 2.025 1.258.99.993 1.485 2.186 1.485 3.577 0 1.396-.496 2.587-1.485 3.575-.718.715-1.543 1.173-2.474 1.37.16.22.327.43.506.634"/><path fill-rule="evenodd" clip-rule="evenodd" fill="#00765A" d="M45.767 7.898c-.285 0-.498.12-.64.368-.054.116-.08.23-.08.35 0 .125.032.245.095.354.132.237.34.355.625.355.28 0 .485-.118.615-.355.065-.11.098-.23.098-.355 0-.148-.035-.27-.105-.373-.136-.23-.338-.344-.608-.344m-1.875 2.256c.04.28.097.557.166.828.052-.003.102-.005.152-.005.664 0 1.268.177 1.818.526.548.35.945.81 1.193 1.38l.73-.264c-.31-.74-.802-1.34-1.484-1.797-.683-.456-1.436-.683-2.256-.683-.107.002-.213.006-.318.014m2.912 5.064c.533-.27 1.026-.64 1.483-1.095 1.134-1.133 1.7-2.498 1.7-4.092 0-1.596-.568-2.96-1.7-4.095-.853-.854-1.133-1.337-2.25-1.547-.157.214-.304.437-.44.67 1.1.14 1.356.572 2.178 1.395.99.994 1.486 2.187 1.486 3.578 0 1.396-.495 2.588-1.485 3.576-.477.474-1 .836-1.57 1.083.19.185.39.362.6.528"/><defs><path id="a" d="M32.762 19.94h4.16l8.623-4.68-.945-1.74z"/></defs><defs><path id="b" d="M36.923 19.937l8.623-4.676-.945-1.74-11.837 6.417z"/></defs><clipPath id="c"><use xlink:href="#b" overflow="visible"/></clipPath><path clip-path="url(#c)" fill="#48484A" d="M35.952 19.94l9.594-5.32v5.32"/><path clip-path="url(#c)" fill="#48484A" d="M45.546 14.62l-9.598 5.32h.008l9.59-5.32"/><path transform="rotate(150.992 40.748 17.28)" clip-path="url(#c)" fill="#49494B" d="M35.256 17.277h10.98v.004h-10.98z"/><path transform="rotate(150.982 40.742 17.277)" clip-path="url(#c)" fill="#4A4A4C" d="M35.25 17.275h10.985v.004H35.25z"/><path clip-path="url(#c)" fill="#4B4B4D" d="M45.546 14.61l-9.613 5.33h.007l9.606-5.33"/><path clip-path="url(#c)" fill="#4C4C4E" d="M35.93 19.94l9.616-5.337v.008l-9.613 5.33"/><path clip-path="url(#c)" fill="#4D4D4F" d="M35.92 19.94l9.626-5.337-9.617 5.336"/><path transform="rotate(150.986 40.732 17.272)" clip-path="url(#c)" fill="#4E4E50" d="M35.226 17.27h11.01v.003h-11.01z"/><path clip-path="url(#c)" fill="#4F4F51" d="M35.91 19.94l9.636-5.345v.004l-9.63 5.34"/><path transform="rotate(150.995 40.723 17.266)" clip-path="url(#c)" fill="#505153" d="M35.21 17.265h11.028v.004H35.21z"/><path clip-path="url(#c)" fill="#515254" d="M45.546 14.587l-9.652 5.352h.007l9.646-5.35"/><path transform="rotate(150.986 40.718 17.263)" clip-path="url(#c)" fill="#525355" d="M35.197 17.26H46.24v.005H35.196z"/><path clip-path="url(#c)" fill="#535456" d="M45.546 14.58l-9.664 5.36h.008l9.656-5.357"/><path clip-path="url(#c)" fill="#555558" d="M35.87 19.94l9.676-5.364v.004l-9.668 5.36"/><path transform="rotate(-29.005 40.71 17.255)" clip-path="url(#c)" fill="#565658" d="M35.174 17.253h11.068v.004H35.174z"/><path transform="rotate(150.986 40.705 17.254)" clip-path="url(#c)" fill="#575759" d="M35.167 17.253H46.24v.004H35.167z"/><path clip-path="url(#c)" fill="#57585A" d="M35.854 19.94l9.692-5.376v.004l-9.684 5.37"/><path transform="rotate(-29.005 40.697 17.25)" clip-path="url(#c)" fill="#58595B" d="M35.157 17.25h11.086v.004H35.157z"/><path transform="rotate(150.986 40.696 17.252)" clip-path="url(#c)" fill="#595A5C" d="M35.15 17.25h11.092v.004h-11.09z"/><path clip-path="url(#c)" fill="#5A5B5D" d="M35.84 19.94l9.706-5.384v.004l-9.7 5.38"/><path clip-path="url(#c)" fill="#5B5C5E" d="M35.83 19.94l9.716-5.388v.004L35.84 19.94"/><path transform="rotate(-29.014 40.692 17.245)" clip-path="url(#c)" fill="#5C5D5F" d="M35.132 17.242h11.114v.004H35.132z"/><path clip-path="url(#c)" fill="#5D5E61" d="M35.815 19.94l9.73-5.396v.004l-9.722 5.39"/><path transform="rotate(-29.014 40.68 17.24)" clip-path="url(#c)" fill="#5E5F62" d="M35.115 17.238h11.13v.004h-11.13z"/><path transform="rotate(150.982 40.675 17.24)" clip-path="url(#c)" fill="#5F6062" d="M35.11 17.238h11.135v.004H35.11z"/><path clip-path="url(#c)" fill="#606163" d="M45.546 14.533L35.8 19.94h.008l9.738-5.403"/><path clip-path="url(#c)" fill="#616264" d="M35.792 19.94l9.754-5.407L35.8 19.94"/><path transform="rotate(150.995 40.666 17.235)" clip-path="url(#c)" fill="#626365" d="M35.088 17.234h11.157v.004H35.088z"/><path transform="rotate(-29.014 40.668 17.233)" clip-path="url(#c)" fill="#626466" d="M35.086 17.23H46.25v.004H35.085z"/><path clip-path="url(#c)" fill="#636467" d="M35.776 19.94l9.77-5.42v.005l-9.762 5.414"/><path transform="rotate(150.982 40.658 17.23)" clip-path="url(#c)" fill="#646568" d="M35.07 17.228H46.25v.004H35.07z"/><path clip-path="url(#c)" fill="#666769" d="M35.76 19.94l9.786-5.427v.004L35.77 19.94"/><path clip-path="url(#c)" fill="#67686A" d="M35.753 19.94l9.793-5.43v.003L35.76 19.94"/><path clip-path="url(#c)" fill="#68696C" d="M45.546 14.5l-9.8 5.44h.003l9.796-5.43"/><path clip-path="url(#c)" fill="#696A6D" d="M35.737 19.94l9.81-5.44-9.802 5.44"/><path transform="rotate(-29.014 40.637 17.22)" clip-path="url(#c)" fill="#6A6B6D" d="M35.03 17.216h11.22v.004H35.03z"/><path transform="rotate(150.982 40.636 17.218)" clip-path="url(#c)" fill="#6B6C6E" d="M35.025 17.216H46.25v.004H35.026z"/><path clip-path="url(#c)" fill="#6B6D6F" d="M35.722 19.94l9.824-5.446-9.817 5.445"/><path clip-path="url(#c)" fill="#6C6E70" d="M45.546 14.49l-9.832 5.45h.008l9.824-5.446"/><path transform="rotate(150.995 40.627 17.214)" clip-path="url(#c)" fill="#6D6E71" d="M35.005 17.212H46.25v.004H35.006z"/><path transform="rotate(150.986 40.626 17.213)" clip-path="url(#c)" fill="#6E6F72" d="M35 17.21h11.252v.004H35z"/><path clip-path="url(#c)" fill="#6E7072" d="M45.546 14.478l-9.848 5.46h.008l9.84-5.456"/><path transform="rotate(150.992 40.62 17.21)" clip-path="url(#c)" fill="#707274" d="M34.984 17.207h11.27v.004h-11.27z"/><path clip-path="url(#c)" fill="#717275" d="M35.683 19.94l9.863-5.47v.004L35.69 19.94"/><path transform="rotate(-29.014 40.616 17.204)" clip-path="url(#c)" fill="#727376" d="M34.973 17.2h11.283v.005H34.973z"/><path clip-path="url(#c)" fill="#727476" d="M35.67 19.94l9.876-5.478v.004L35.68 19.94"/><path transform="rotate(-29.002 40.612 17.203)" clip-path="url(#c)" fill="#737577" d="M34.96 17.2h11.296v.003H34.96z"/><path clip-path="url(#c)" fill="#747578" d="M45.546 14.458l-9.887 5.48h.007l9.88-5.476"/><path transform="rotate(150.992 40.603 17.2)" clip-path="url(#c)" fill="#757679" d="M34.946 17.197h11.31v.004h-11.31z"/><path transform="rotate(-29.018 40.596 17.194)" clip-path="url(#c)" fill="#75777A" d="M34.943 17.193h11.315v.004H34.943z"/><path clip-path="url(#c)" fill="#76787A" d="M35.644 19.94l9.902-5.493v.004l-9.895 5.49"/><path clip-path="url(#c)" fill="#78797C" d="M45.546 14.443l-9.914 5.496h.008l9.906-5.493"/><path transform="rotate(150.986 40.587 17.192)" clip-path="url(#c)" fill="#787A7D" d="M34.916 17.19h11.34v.003h-11.34z"/><path transform="rotate(150.982 40.584 17.188)" clip-path="url(#c)" fill="#797B7D" d="M34.912 17.187h11.346v.004H34.912z"/><path clip-path="url(#c)" fill="#7A7C7E" d="M35.616 19.94l9.93-5.51v.005l-9.922 5.504"/><path clip-path="url(#c)" fill="#7B7D80" d="M45.546 14.427l-9.942 5.512h.008l9.934-5.51"/><path transform="rotate(150.986 40.573 17.183)" clip-path="url(#c)" fill="#7C7E80" d="M34.887 17.18H46.26v.005H34.886z"/><path clip-path="url(#c)" fill="#7D7F81" d="M35.593 19.94l9.953-5.52v.003L35.6 19.94"/><path transform="rotate(-29.008 40.57 17.178)" clip-path="url(#c)" fill="#7E8083" d="M34.872 17.175h11.39v.004h-11.39z"/><path clip-path="url(#c)" fill="#7F8183" d="M35.577 19.94l9.97-5.528v.004l-9.962 5.523"/><path transform="rotate(150.986 40.56 17.175)" clip-path="url(#c)" fill="#808284" d="M34.858 17.173h11.404v.004H34.858z"/><path clip-path="url(#c)" fill="#818285" d="M45.546 14.404l-9.98 5.535h.007l9.973-5.532"/><path transform="rotate(-29.014 40.55 17.17)" clip-path="url(#c)" fill="#828487" d="M34.843 17.167h11.42v.004h-11.42z"/><path clip-path="url(#c)" fill="#838587" d="M45.546 14.396L35.55 19.94h.008l9.988-5.54"/><path transform="rotate(150.982 40.544 17.167)" clip-path="url(#c)" fill="#848588" d="M34.828 17.166h11.435v.004H34.828z"/><path clip-path="url(#c)" fill="#848689" d="M45.546 14.392L35.538 19.94h.008l10-5.548"/><path transform="rotate(150.995 40.54 17.165)" clip-path="url(#c)" fill="#85878A" d="M34.816 17.164h11.448v.004H34.816z"/><path clip-path="url(#c)" fill="#86888A" d="M35.526 19.94l10.02-5.556v.004l-10.012 5.55"/><path transform="rotate(150.986 40.534 17.162)" clip-path="url(#c)" fill="#87888B" d="M34.803 17.16h11.462v.004H34.803z"/><path transform="rotate(-29.018 40.534 17.157)" clip-path="url(#c)" fill="#87898C" d="M34.8 17.156H46.27v.004H34.8z"/><path clip-path="url(#c)" fill="#888A8D" d="M35.51 19.94l10.036-5.564L35.52 19.94"/><path transform="rotate(150.995 40.525 17.156)" clip-path="url(#c)" fill="#898B8D" d="M34.787 17.156h11.48v.004h-11.48z"/><path transform="rotate(-29.014 40.53 17.155)" clip-path="url(#c)" fill="#898B8E" d="M34.784 17.152h11.484v.004H34.784z"/><path clip-path="url(#c)" fill="#8A8C8F" d="M35.495 19.94l10.05-5.575v.004l-10.042 5.57"/><path clip-path="url(#c)" fill="#8B8D90" d="M35.487 19.94l10.06-5.58v.005L35.494 19.94"/><path transform="rotate(-29.002 40.52 17.152)" clip-path="url(#c)" fill="#8C8E90" d="M34.764 17.148H46.27v.004H34.763z"/><path transform="rotate(150.986 40.513 17.15)" clip-path="url(#c)" fill="#8C8E91" d="M34.757 17.148h11.51v.004h-11.51z"/><path clip-path="url(#c)" fill="#8D8F92" d="M35.472 19.94l10.074-5.587v.004L35.48 19.94"/><path transform="rotate(-29.014 40.512 17.146)" clip-path="url(#c)" fill="#8E9093" d="M34.747 17.142h11.525v.004H34.747z"/><path transform="rotate(150.974 40.505 17.145)" clip-path="url(#c)" fill="#8F9193" d="M34.74 17.142h11.53v.004H34.74z"/><path clip-path="url(#c)" fill="#8F9294" d="M35.456 19.94l10.09-5.595-10.082 5.594"/><path clip-path="url(#c)" fill="#909295" d="M45.546 14.34l-10.098 5.6h.008l10.09-5.595"/><path transform="rotate(150.986 40.495 17.142)" clip-path="url(#c)" fill="#919396" d="M34.72 17.138h11.55v.004H34.72z"/><path transform="rotate(-29.018 40.492 17.135)" clip-path="url(#c)" fill="#929496" d="M34.717 17.134h11.556v.004H34.717z"/><path clip-path="url(#c)" fill="#929597" d="M35.433 19.94l10.113-5.61v.003L35.44 19.94"/><path transform="rotate(-29.014 40.488 17.133)" clip-path="url(#c)" fill="#949699" d="M34.7 17.13h11.574v.004H34.7z"/><path clip-path="url(#c)" fill="#95979A" d="M35.417 19.94l10.13-5.618v.004L35.424 19.94"/><path clip-path="url(#c)" fill="#96989A" d="M35.41 19.94l10.136-5.622v.004l-10.13 5.617"/><path transform="rotate(-29.005 40.48 17.127)" clip-path="url(#c)" fill="#97999C" d="M34.676 17.125h11.6v.004h-11.6z"/><path clip-path="url(#c)" fill="#989A9D" d="M35.394 19.94l10.152-5.63v.004L35.4 19.94"/><path transform="rotate(150.986 40.468 17.124)" clip-path="url(#c)" fill="#999B9D" d="M34.66 17.123h11.615v.004H34.66z"/><path transform="rotate(-29.02 40.47 17.122)" clip-path="url(#c)" fill="#999B9E" d="M34.658 17.12h11.62v.003h-11.62z"/><path clip-path="url(#c)" fill="#9A9C9F" d="M35.378 19.94L45.546 14.3l-10.16 5.637"/><path clip-path="url(#c)" fill="#9B9DA0" d="M45.546 14.298l-10.176 5.64h.008l10.168-5.636"/><path transform="rotate(-29.005 40.46 17.117)" clip-path="url(#c)" fill="#9C9EA0" d="M34.638 17.115h11.64v.004h-11.64z"/><path transform="rotate(150.986 40.455 17.116)" clip-path="url(#c)" fill="#9D9FA1" d="M34.632 17.115h11.645v.004H34.632z"/><path clip-path="url(#c)" fill="#9D9FA2" d="M45.546 14.29l-10.192 5.65h.008l10.184-5.65"/><path transform="rotate(150.995 40.447 17.115)" clip-path="url(#c)" fill="#9EA0A3" d="M34.62 17.113h11.657v.004H34.62z"/><path transform="rotate(150.986 40.446 17.113)" clip-path="url(#c)" fill="#9FA1A4" d="M34.615 17.11h11.663v.005H34.615z"/><path clip-path="url(#c)" fill="#A0A2A4" d="M35.34 19.94l10.206-5.66v.003l-10.2 5.656"/><path clip-path="url(#c)" fill="#A0A3A5" d="M35.33 19.94l10.216-5.665v.004L35.34 19.94"/><path transform="rotate(150.995 40.434 17.106)" clip-path="url(#c)" fill="#A2A4A7" d="M34.59 17.105h11.69v.004H34.59z"/><path clip-path="url(#c)" fill="#A3A5A7" d="M45.546 14.267l-10.23 5.672h.007l10.223-5.67"/><path transform="rotate(150.986 40.43 17.103)" clip-path="url(#c)" fill="#A4A6A8" d="M34.577 17.1H46.28v.005H34.577z"/><path transform="rotate(150.982 40.425 17.1)" clip-path="url(#c)" fill="#A4A6A9" d="M34.573 17.1H46.28v.003H34.574z"/><path clip-path="url(#c)" fill="#A5A7AA" d="M45.546 14.26L35.3 19.94h.008l10.238-5.68"/><path clip-path="url(#c)" fill="#A6A8AB" d="M35.292 19.94l10.254-5.685v.004L35.3 19.94"/><path transform="rotate(-29.005 40.42 17.095)" clip-path="url(#c)" fill="#A7A9AB" d="M34.554 17.093h11.73v.004h-11.73z"/><path transform="rotate(150.986 40.415 17.095)" clip-path="url(#c)" fill="#A8AAAC" d="M34.548 17.093h11.734v.004H34.548z"/><path clip-path="url(#c)" fill="#A8AAAD" d="M35.276 19.94l10.27-5.696v.004l-10.262 5.69"/><path transform="rotate(-29.005 40.407 17.09)" clip-path="url(#c)" fill="#A9ABAE" d="M34.538 17.09h11.746v.003H34.538z"/><path transform="rotate(150.986 40.407 17.092)" clip-path="url(#c)" fill="#AAACAF" d="M34.53 17.09h11.753v.003H34.53z"/><path clip-path="url(#c)" fill="#ABADAF" d="M35.26 19.94l10.286-5.704v.004l-10.277 5.7"/><path transform="rotate(150.982 40.4 17.088)" clip-path="url(#c)" fill="#ACAEB0" d="M34.518 17.085h11.766v.004H34.518z"/><path clip-path="url(#c)" fill="#ACAEB1" d="M45.546 14.228l-10.297 5.71h.007l10.29-5.706"/><path clip-path="url(#c)" fill="#AEB0B3" d="M35.237 19.94l10.31-5.716v.004l-10.302 5.71"/><path transform="rotate(-29.014 40.388 17.08)" clip-path="url(#c)" fill="#AFB1B3" d="M34.496 17.078h11.792v.004H34.496z"/><path transform="rotate(150.982 40.386 17.08)" clip-path="url(#c)" fill="#B0B2B4" d="M34.49 17.078h11.796v.004H34.49z"/><path clip-path="url(#c)" fill="#B0B3B5" d="M45.546 14.216L35.222 19.94h.007l10.316-5.724"/><path transform="rotate(-29.005 40.385 17.076)" clip-path="url(#c)" fill="#B1B3B6" d="M34.48 17.074h11.808v.004h-11.81z"/><path clip-path="url(#c)" fill="#B2B4B7" d="M35.21 19.94l10.336-5.732v.004L35.218 19.94"/><path transform="rotate(-29.014 40.377 17.073)" clip-path="url(#c)" fill="#B3B5B7" d="M34.466 17.07H46.29v.004H34.466z"/><path transform="rotate(150.982 40.373 17.07)" clip-path="url(#c)" fill="#B4B6B8" d="M34.46 17.07h11.83v.004H34.46z"/><path clip-path="url(#c)" fill="#B5B7B9" d="M35.194 19.94l10.352-5.74-10.344 5.74"/><path transform="rotate(150.992 40.37 17.07)" clip-path="url(#c)" fill="#B5B7BA" d="M34.448 17.068h11.84v.004H34.45z"/><path clip-path="url(#c)" fill="#B6B8BB" d="M35.183 19.94l10.363-5.747v.004L35.19 19.94"/><path transform="rotate(150.986 40.363 17.065)" clip-path="url(#c)" fill="#B7B9BB" d="M34.435 17.064H46.29v.004H34.435z"/><path clip-path="url(#c)" fill="#B9BBBD" d="M45.546 14.185l-10.38 5.754h.01l10.37-5.75"/><path transform="rotate(150.986 40.355 17.063)" clip-path="url(#c)" fill="#BABCBE" d="M34.418 17.06H46.29v.004H34.418z"/><path clip-path="url(#c)" fill="#BABCBF" d="M35.155 19.94l10.39-5.763v.004l-10.382 5.76"/><path transform="rotate(-29.018 40.347 17.055)" clip-path="url(#c)" fill="#BBBDBF" d="M34.407 17.054h11.886v.004H34.407z"/><path clip-path="url(#c)" fill="#BCBEC0" d="M35.144 19.94l10.402-5.767L35.15 19.94"/><path transform="rotate(-29.005 40.344 17.054)" clip-path="url(#c)" fill="#BDBFC1" d="M34.395 17.052h11.9v.004h-11.9z"/><path transform="rotate(150.986 40.34 17.054)" clip-path="url(#c)" fill="#BEC0C2" d="M34.39 17.052h11.903v.004H34.39z"/><path clip-path="url(#c)" fill="#BFC0C3" d="M35.128 19.94l10.418-5.778v.004l-10.41 5.773"/><path transform="rotate(-29.018 40.336 17.048)" clip-path="url(#c)" fill="#BFC1C3" d="M34.378 17.046h11.918v.004H34.378z"/><path clip-path="url(#c)" fill="#C0C2C4" d="M35.116 19.94l10.43-5.782-10.422 5.78"/><path transform="rotate(150.995 40.328 17.047)" clip-path="url(#c)" fill="#C1C3C5" d="M34.364 17.046h11.93v.004h-11.93z"/><path transform="rotate(150.986 40.327 17.046)" clip-path="url(#c)" fill="#C2C4C6" d="M34.36 17.044h11.934v.004H34.36z"/><path clip-path="url(#c)" fill="#C3C5C7" d="M45.546 14.146L35.1 19.94h.008l10.438-5.79"/><path clip-path="url(#c)" fill="#C4C6C8" d="M35.09 19.94l10.456-5.798v.004l-10.45 5.793"/><path transform="rotate(-29.008 40.322 17.04)" clip-path="url(#c)" fill="#C5C7C9" d="M34.337 17.037H46.3v.004H34.336z"/><path transform="rotate(150.982 40.312 17.04)" clip-path="url(#c)" fill="#C6C8CA" d="M34.33 17.037h11.967v.004H34.33z"/><path clip-path="url(#c)" fill="#C7C9CB" d="M45.546 14.13l-10.473 5.81h.008l10.466-5.806"/><path transform="rotate(-29.005 40.31 17.034)" clip-path="url(#c)" fill="#C8CACB" d="M34.32 17.033H46.3v.004H34.32z"/><path clip-path="url(#c)" fill="#C9CACC" d="M35.062 19.94l10.484-5.814v.004L35.07 19.94"/><path transform="rotate(-29.014 40.3 17.03)" clip-path="url(#c)" fill="#C9CBCD" d="M34.307 17.03H46.3v.003H34.307z"/><path clip-path="url(#c)" fill="#CACCCE" d="M35.05 19.94l10.496-5.82v.003L35.058 19.94"/><path transform="rotate(150.982 40.294 17.03)" clip-path="url(#c)" fill="#CBCDCF" d="M34.292 17.027H46.3v.004H34.29z"/><path clip-path="url(#c)" fill="#CDCED0" d="M45.546 14.11l-10.512 5.83h.008l10.504-5.825"/><path transform="rotate(150.986 40.288 17.025)" clip-path="url(#c)" fill="#CECFD1" d="M34.276 17.023H46.3v.004H34.277z"/><path clip-path="url(#c)" fill="#CFD0D2" d="M35.022 19.94l10.524-5.837v.004L35.03 19.94"/><path transform="rotate(-29.002 40.287 17.023)" clip-path="url(#c)" fill="#CFD1D3" d="M34.266 17.02h12.037v.003H34.266z"/><path clip-path="url(#c)" fill="#D0D2D3" d="M35.01 19.94l10.536-5.84v.003L35.02 19.94"/><path transform="rotate(150.995 40.275 17.018)" clip-path="url(#c)" fill="#D1D2D4" d="M34.25 17.017h12.052v.004h-12.05z"/><path transform="rotate(-29.014 40.28 17.017)" clip-path="url(#c)" fill="#D2D3D5" d="M34.248 17.013h12.056v.004H34.248z"/><path clip-path="url(#c)" fill="#D3D4D6" d="M34.995 19.94l10.55-5.853v.004l-10.542 5.85"/><path transform="rotate(-29.005 40.268 17.013)" clip-path="url(#c)" fill="#D4D5D6" d="M34.236 17.01h12.068v.005H34.236z"/><path transform="rotate(150.986 40.267 17.014)" clip-path="url(#c)" fill="#D4D6D7" d="M34.23 17.01h12.074v.005H34.23z"/><path clip-path="url(#c)" fill="#D5D7D8" d="M34.98 19.94l10.566-5.86v.003l-10.56 5.856"/><path clip-path="url(#c)" fill="#D6D7D9" d="M45.546 14.076L34.972 19.94h.007l10.566-5.86"/><path transform="rotate(150.986 40.257 17.006)" clip-path="url(#c)" fill="#D7D8DA" d="M34.21 17.005h12.095v.004H34.21z"/><path clip-path="url(#c)" fill="#D9DADB" d="M34.956 19.94l10.59-5.872v.004L34.964 19.94"/><path transform="rotate(-29.014 40.25 17.002)" clip-path="url(#c)" fill="#D9DBDC" d="M34.194 17h12.114v.004H34.194z"/><path transform="rotate(150.982 40.246 17)" clip-path="url(#c)" fill="#DADBDD" d="M34.188 17h12.12v.004h-12.12z"/><path clip-path="url(#c)" fill="#DBDCDE" d="M34.94 19.94l10.606-5.884v.004l-10.598 5.88"/><path clip-path="url(#c)" fill="#DCDDDE" d="M45.546 14.056L34.933 19.94h.007l10.606-5.884"/><path transform="rotate(150.995 40.236 16.997)" clip-path="url(#c)" fill="#DDDEDF" d="M34.167 16.996h12.14V17h-12.14z"/><path transform="rotate(-29.014 40.238 16.995)" clip-path="url(#c)" fill="#DDDFE0" d="M34.165 16.992H46.31v.004H34.165z"/><path clip-path="url(#c)" fill="#DEDFE1" d="M34.917 19.94l10.63-5.896v.004l-10.622 5.89"/><path transform="rotate(-29.014 40.225 16.99)" clip-path="url(#c)" fill="#E0E1E2" d="M34.148 16.988H46.31v.004H34.15z"/><path clip-path="url(#c)" fill="#E1E2E3" d="M34.9 19.94l10.646-5.903v.004l-10.637 5.9"/><path clip-path="url(#c)" fill="#E2E3E4" d="M34.894 19.94l10.652-5.907v.004L34.9 19.94"/><path transform="rotate(150.986 40.218 16.986)" clip-path="url(#c)" fill="#E2E3E5" d="M34.125 16.984H46.31v.004H34.125z"/><path clip-path="url(#c)" fill="#E4E5E6" d="M34.878 19.94l10.668-5.915v.004l-10.66 5.91"/><path transform="rotate(150.986 40.21 16.983)" clip-path="url(#c)" fill="#E5E6E7" d="M34.11 16.98H46.31v.004H34.11z"/><path transform="rotate(-29.018 40.207 16.977)" clip-path="url(#c)" fill="#E6E7E8" d="M34.106 16.976h12.208v.004H34.106z"/><path clip-path="url(#c)" fill="#E7E7E8" d="M34.862 19.94l10.684-5.923L34.87 19.94"/><path clip-path="url(#c)" fill="#E8E8E9" d="M45.546 14.013L34.854 19.94h.008l10.684-5.923"/><path transform="rotate(-29.005 40.2 16.974)" clip-path="url(#c)" fill="#E8E9EA" d="M34.086 16.972h12.23v.004h-12.23z"/><path transform="rotate(150.986 40.197 16.975)" clip-path="url(#c)" fill="#E9EAEB" d="M34.08 16.972h12.233v.004H34.08z"/><path clip-path="url(#c)" fill="#EAEBEC" d="M45.546 14L34.84 19.94h.007l10.7-5.935"/><path transform="rotate(150.992 40.19 16.97)" clip-path="url(#c)" fill="#ECECED" d="M34.063 16.968h12.252v.004H34.063z"/><path clip-path="url(#c)" fill="#EDEDEE" d="M45.546 13.994L34.823 19.94h.008l10.716-5.942"/><path clip-path="url(#c)" fill="#EDEEEF" d="M34.815 19.94l10.73-5.95v.004L34.824 19.94"/><path transform="rotate(150.986 40.18 16.965)" clip-path="url(#c)" fill="#EEEFF0" d="M34.04 16.962h12.276v.004H34.04z"/><path clip-path="url(#c)" fill="#F0F0F1" d="M45.546 13.982L34.8 19.94h.008l10.738-5.954"/><path transform="rotate(150.992 40.173 16.96)" clip-path="url(#c)" fill="#F1F1F2" d="M34.025 16.958h12.292v.004H34.025z"/><path transform="rotate(150.986 40.17 16.957)" clip-path="url(#c)" fill="#F2F2F3" d="M34.02 16.957h12.297v.004H34.02z"/><path clip-path="url(#c)" fill="#F3F3F3" d="M45.546 13.97l-10.762 5.97h.008l10.754-5.966"/><path clip-path="url(#c)" fill="#F4F5F5" d="M45.546 13.966L34.772 19.94h.008l10.766-5.97"/><path transform="rotate(150.986 40.157 16.954)" clip-path="url(#c)" fill="#F5F6F6" d="M33.995 16.95H46.32v.005H33.994z"/><path clip-path="url(#c)" fill="#F6F6F7" d="M34.76 19.94l10.786-5.982v.004L34.77 19.94"/><path transform="rotate(-29.002 40.153 16.95)" clip-path="url(#c)" fill="#F7F7F8" d="M33.985 16.947H46.32v.004H33.986z"/><path transform="rotate(150.995 40.148 16.948)" clip-path="url(#c)" fill="#F8F8F9" d="M33.98 16.947h12.34v.004H33.98z"/><path clip-path="url(#c)" fill="#F9F9FA" d="M34.745 19.94l10.8-5.99v.005L34.754 19.94"/><path transform="rotate(150.986 40.144 16.945)" clip-path="url(#c)" fill="#FAFBFB" d="M33.966 16.943H46.32v.004H33.967z"/><path clip-path="url(#c)" fill="#FCFCFC" d="M34.733 19.94l10.813-5.997v.004L34.74 19.94"/><path clip-path="url(#c)" fill="#FFF" d="M45.546 13.94l-10.824 6h.007l10.816-5.997"/><path transform="rotate(150.995 40.13 16.938)" clip-path="url(#c)" fill="#FFF" d="M33.94 16.937h12.382v.004h-12.38z"/><path transform="rotate(150.986 40.13 16.936)" clip-path="url(#c)" fill="#FDFDFD" d="M33.937 16.935h12.387v.004H33.937z"/><path transform="rotate(-29.005 40.13 16.935)" clip-path="url(#c)" fill="#FCFCFC" d="M33.935 16.933h12.39v.004h-12.39z"/><path transform="rotate(150.986 40.126 16.935)" clip-path="url(#c)" fill="#FAFAFB" d="M33.928 16.933h12.395v.004H33.928z"/><path transform="rotate(150.982 40.123 16.932)" clip-path="url(#c)" fill="#F9F9FA" d="M33.924 16.93h12.4v.005h-12.4z"/><path clip-path="url(#c)" fill="#F7F7F8" d="M34.69 19.94l10.856-6.02v.003L34.698 19.94"/><path clip-path="url(#c)" fill="#F5F5F6" d="M34.683 19.94l10.863-6.024v.003L34.69 19.94"/><path transform="rotate(150.995 40.11 16.927)" clip-path="url(#c)" fill="#F3F4F4" d="M33.895 16.925h12.43v.004h-12.43z"/><path transform="rotate(-29.014 40.11 16.924)" clip-path="url(#c)" fill="#F3F3F3" d="M33.893 16.92h12.435v.005H33.893z"/><path clip-path="url(#c)" fill="#F1F1F2" d="M34.66 19.94l10.886-6.036v.004l-10.88 6.03"/><path clip-path="url(#c)" fill="#EFF0F0" d="M34.65 19.94l10.896-6.04-10.887 6.04"/><path transform="rotate(150.982 40.097 16.92)" clip-path="url(#c)" fill="#EEEFEF" d="M33.87 16.917h12.458v.004H33.87z"/><path clip-path="url(#c)" fill="#EDEEEF" d="M34.644 19.94l10.902-6.048v.004L34.65 19.94"/><path transform="rotate(150.986 40.09 16.916)" clip-path="url(#c)" fill="#ECECED" d="M33.853 16.914H46.33v.004H33.852z"/><path transform="rotate(150.982 40.088 16.912)" clip-path="url(#c)" fill="#EBECEC" d="M33.848 16.912h12.48v.004H33.85z"/><path transform="rotate(-29.014 40.086 16.912)" clip-path="url(#c)" fill="#EAEBEC" d="M33.847 16.91H46.33v.004H33.848z"/><path clip-path="url(#c)" fill="#E9EAEB" d="M34.62 19.94l10.926-6.06v.004L34.628 19.94"/><path transform="rotate(150.995 40.078 16.908)" clip-path="url(#c)" fill="#E7E8E9" d="M33.828 16.908H46.33v.004H33.828z"/><path transform="rotate(150.995 40.074 16.907)" clip-path="url(#c)" fill="#E6E7E8" d="M33.82 16.906h12.51v.004H33.82z"/><path transform="rotate(150.986 40.074 16.906)" clip-path="url(#c)" fill="#E5E6E7" d="M33.815 16.904H46.33v.004H33.816z"/><path transform="rotate(150.986 40.07 16.905)" clip-path="url(#c)" fill="#E3E4E5" d="M33.807 16.902h12.525v.004H33.807z"/><path transform="rotate(150.982 40.066 16.9)" clip-path="url(#c)" fill="#E2E3E4" d="M33.802 16.9h12.53v.004h-12.53z"/><path clip-path="url(#c)" fill="#E2E3E4" d="M45.546 13.86L34.58 19.94h.01l10.956-6.08"/><path transform="rotate(150.995 40.06 16.898)" clip-path="url(#c)" fill="#E1E2E3" d="M33.79 16.898h12.542v.004H33.79z"/><path transform="rotate(-29.002 40.06 16.9)" clip-path="url(#c)" fill="#E0E1E2" d="M33.79 16.896h12.545v.004H33.79z"/><path transform="rotate(150.995 40.057 16.897)" clip-path="url(#c)" fill="#DFE0E1" d="M33.782 16.896h12.55v.004h-12.55z"/><path transform="rotate(150.986 40.056 16.896)" clip-path="url(#c)" fill="#DEDFE1" d="M33.778 16.894h12.556v.004H33.778z"/><path transform="rotate(150.986 40.052 16.895)" clip-path="url(#c)" fill="#DDDEDF" d="M33.77 16.892h12.564v.004H33.77z"/><path transform="rotate(150.982 40.048 16.89)" clip-path="url(#c)" fill="#DCDDDE" d="M33.765 16.89h12.57v.004h-12.57z"/><path clip-path="url(#c)" fill="#DADBDD" d="M34.542 19.94l11.004-6.103v.004l-10.996 6.1"/><path transform="rotate(-29.002 40.043 16.89)" clip-path="url(#c)" fill="#D9DBDC" d="M33.75 16.886h12.587v.004H33.75z"/><path transform="rotate(150.995 40.04 16.887)" clip-path="url(#c)" fill="#D8DADB" d="M33.745 16.886h12.59v.004h-12.59z"/><path transform="rotate(150.986 40.038 16.886)" clip-path="url(#c)" fill="#D8D9DA" d="M33.74 16.884h12.596v.004H33.74z"/><path transform="rotate(150.986 40.034 16.885)" clip-path="url(#c)" fill="#D6D7D9" d="M33.732 16.882h12.605v.004H33.732z"/><path transform="rotate(150.982 40.03 16.88)" clip-path="url(#c)" fill="#D5D6D8" d="M33.727 16.88h12.61v.004h-12.61z"/><path clip-path="url(#c)" fill="#D4D6D7" d="M34.51 19.94l11.036-6.118L34.52 19.94"/><path transform="rotate(150.982 40.027 16.88)" clip-path="url(#c)" fill="#D3D5D6" d="M33.72 16.878h12.618v.004h-12.62z"/><path clip-path="url(#c)" fill="#D3D4D6" d="M34.503 19.94l11.043-6.122-11.035 6.12"/><path transform="rotate(150.995 40.02 16.877)" clip-path="url(#c)" fill="#D2D3D5" d="M33.707 16.876h12.63v.004h-12.63z"/><path transform="rotate(-29.002 40.02 16.878)" clip-path="url(#c)" fill="#D1D2D4" d="M33.705 16.875H46.34v.004H33.705z"/><path transform="rotate(-29.005 40.02 16.874)" clip-path="url(#c)" fill="#D0D2D3" d="M33.7 16.873h12.64v.004H33.7z"/><path transform="rotate(150.986 40.017 16.875)" clip-path="url(#c)" fill="#CFD1D2" d="M33.694 16.873H46.34v.004H33.693z"/><path transform="rotate(150.986 40.013 16.874)" clip-path="url(#c)" fill="#CECFD1" d="M33.686 16.87H46.34v.005H33.686z"/><path clip-path="url(#c)" fill="#CDCED0" d="M34.472 19.94l11.074-6.142v.004L34.48 19.94"/><path clip-path="url(#c)" fill="#CBCDCF" d="M34.464 19.94l11.082-6.146v.004l-11.074 6.14"/><path transform="rotate(150.986 40.003 16.867)" clip-path="url(#c)" fill="#CACCCE" d="M33.665 16.865h12.677v.004H33.665z"/><path transform="rotate(-29.014 40 16.864)" clip-path="url(#c)" fill="#C9CACC" d="M33.658 16.86h12.686v.005H33.658z"/><path clip-path="url(#c)" fill="#C7C9CB" d="M34.44 19.94l11.106-6.157v.004L34.448 19.94"/><path transform="rotate(150.982 39.992 16.86)" clip-path="url(#c)" fill="#C6C8CA" d="M33.643 16.86h12.7v.003h-12.7z"/><path clip-path="url(#c)" fill="#C5C7C9" d="M34.433 19.94l11.113-6.16-11.106 6.16"/><path transform="rotate(150.986 39.99 16.858)" clip-path="url(#c)" fill="#C4C6C8" d="M33.635 16.857h12.708v.004H33.635z"/><path clip-path="url(#c)" fill="#C4C5C7" d="M34.425 19.94l11.12-6.165-11.112 6.164"/><path transform="rotate(150.995 39.982 16.857)" clip-path="url(#c)" fill="#C3C4C7" d="M33.623 16.855h12.72v.004h-12.72z"/><path transform="rotate(150.986 39.982 16.855)" clip-path="url(#c)" fill="#C2C4C6" d="M33.62 16.853h12.725v.004H33.62z"/><path transform="rotate(-29.014 39.975 16.852)" clip-path="url(#c)" fill="#C0C2C4" d="M33.612 16.85h12.734v.003H33.612z"/><path clip-path="url(#c)" fill="#BFC1C3" d="M34.4 19.94l11.146-6.18v.003L34.41 19.94"/><path clip-path="url(#c)" fill="#BEC0C2" d="M34.394 19.94l11.152-6.185v.004L34.4 19.94"/><path transform="rotate(150.986 39.968 16.847)" clip-path="url(#c)" fill="#BDBFC1" d="M33.59 16.845h12.756v.004H33.59z"/><path transform="rotate(150.986 39.964 16.846)" clip-path="url(#c)" fill="#BBBDBF" d="M33.58 16.843h12.767v.004H33.58z"/><path transform="rotate(150.986 39.96 16.844)" clip-path="url(#c)" fill="#B9BBBE" d="M33.573 16.84h12.775v.005H33.573z"/><path transform="rotate(-29.002 39.962 16.844)" clip-path="url(#c)" fill="#B9BBBD" d="M33.57 16.84h12.78v.003H33.57z"/><path clip-path="url(#c)" fill="#B8BABC" d="M34.362 19.94l11.184-6.2v.004L34.37 19.94"/><path transform="rotate(150.995 39.95 16.838)" clip-path="url(#c)" fill="#B7B9BB" d="M33.556 16.837h12.792v.004H33.556z"/><path transform="rotate(150.995 39.947 16.837)" clip-path="url(#c)" fill="#B5B7BA" d="M33.548 16.835h12.8v.004h-12.8z"/><path transform="rotate(150.986 39.947 16.836)" clip-path="url(#c)" fill="#B4B6B9" d="M33.543 16.833H46.35v.004H33.542z"/><path transform="rotate(150.986 39.943 16.834)" clip-path="url(#c)" fill="#B3B5B7" d="M33.535 16.832H46.35v.004H33.535z"/><path transform="rotate(150.982 39.94 16.83)" clip-path="url(#c)" fill="#B2B4B6" d="M33.53 16.83h12.82v.004H33.53z"/><path clip-path="url(#c)" fill="#B0B2B5" d="M45.546 13.716L34.323 19.94h.008l11.216-6.22"/><path transform="rotate(150.995 39.93 16.827)" clip-path="url(#c)" fill="#AFB1B3" d="M33.51 16.826h12.84v.004H33.51z"/><path transform="rotate(150.986 39.93 16.826)" clip-path="url(#c)" fill="#AEB0B2" d="M33.506 16.824h12.846v.004H33.506z"/><path transform="rotate(150.986 39.925 16.825)" clip-path="url(#c)" fill="#ACAEB1" d="M33.497 16.822h12.855v.004H33.497z"/><path transform="rotate(150.992 39.923 16.822)" clip-path="url(#c)" fill="#ABADAF" d="M33.49 16.82h12.863v.004H33.49z"/><path transform="rotate(150.982 39.917 16.82)" clip-path="url(#c)" fill="#AAACAE" d="M33.484 16.818h12.87v.004h-12.87z"/><path clip-path="url(#c)" fill="#A9ABAE" d="M34.284 19.94l11.262-6.243-11.254 6.242"/><path transform="rotate(150.995 39.912 16.817)" clip-path="url(#c)" fill="#A8AAAD" d="M33.472 16.816h12.88v.004h-12.88z"/><path transform="rotate(150.986 39.91 16.816)" clip-path="url(#c)" fill="#A7AAAC" d="M33.468 16.814h12.887v.004H33.468z"/><path transform="rotate(150.986 39.907 16.815)" clip-path="url(#c)" fill="#A6A8AA" d="M33.46 16.812h12.895v.004H33.46z"/><path transform="rotate(150.982 39.904 16.812)" clip-path="url(#c)" fill="#A5A7AA" d="M33.455 16.81h12.9v.004h-12.9z"/><path clip-path="url(#c)" fill="#A3A6A8" d="M34.253 19.94l11.293-6.263v.004L34.26 19.94"/><path clip-path="url(#c)" fill="#A2A4A7" d="M34.245 19.94l11.3-6.267v.004L34.254 19.94"/><path transform="rotate(-29.014 39.895 16.805)" clip-path="url(#c)" fill="#A1A3A6" d="M33.432 16.802H46.36v.004H33.43z"/><path transform="rotate(-29.005 39.89 16.803)" clip-path="url(#c)" fill="#A0A2A5" d="M33.428 16.802h12.93v.004h-12.93z"/><path transform="rotate(150.986 39.89 16.805)" clip-path="url(#c)" fill="#9FA2A4" d="M33.422 16.802h12.936v.004H33.422z"/><path transform="rotate(150.986 39.886 16.804)" clip-path="url(#c)" fill="#9EA0A3" d="M33.414 16.8h12.944v.004H33.414z"/><path transform="rotate(150.982 39.882 16.8)" clip-path="url(#c)" fill="#9D9FA2" d="M33.41 16.798h12.95v.004H33.41z"/><path clip-path="url(#c)" fill="#9C9EA1" d="M34.214 19.94l11.332-6.282-11.324 6.28"/><path transform="rotate(150.986 39.88 16.798)" clip-path="url(#c)" fill="#9C9EA0" d="M33.4 16.796h12.96v.004H33.4z"/><path clip-path="url(#c)" fill="#9B9D9F" d="M34.206 19.94l11.34-6.29v.004L34.214 19.94"/><path transform="rotate(150.986 39.872 16.795)" clip-path="url(#c)" fill="#999B9E" d="M33.384 16.792H46.36v.004H33.384z"/><path transform="rotate(-29.005 39.867 16.792)" clip-path="url(#c)" fill="#989B9D" d="M33.382 16.79h12.98v.005H33.38z"/><path transform="rotate(150.986 39.868 16.794)" clip-path="url(#c)" fill="#989A9C" d="M33.376 16.79H46.36v.005H33.377z"/><path clip-path="url(#c)" fill="#97999C" d="M34.183 19.94l11.363-6.302v.004L34.19 19.94"/><path clip-path="url(#c)" fill="#95979A" d="M34.175 19.94l11.37-6.306v.004l-11.362 6.3"/><path transform="rotate(150.995 39.855 16.786)" clip-path="url(#c)" fill="#949699" d="M33.35 16.785h13.012v.004h-13.01z"/><path transform="rotate(150.986 39.855 16.785)" clip-path="url(#c)" fill="#939598" d="M33.346 16.783h13.016v.004H33.346z"/><path transform="rotate(-29.005 39.85 16.782)" clip-path="url(#c)" fill="#929497" d="M33.345 16.78h13.02v.005h-13.02z"/><path transform="rotate(150.986 39.85 16.784)" clip-path="url(#c)" fill="#929496" d="M33.338 16.78h13.025v.005H33.338z"/><path transform="rotate(-29.018 39.847 16.778)" clip-path="url(#c)" fill="#919396" d="M33.336 16.777h13.03v.004h-13.03z"/><path clip-path="url(#c)" fill="#909295" d="M34.144 19.94l11.402-6.32-11.395 6.32"/><path transform="rotate(150.995 39.842 16.778)" clip-path="url(#c)" fill="#8F9194" d="M33.322 16.777h13.042v.004H33.322z"/><path transform="rotate(150.986 39.84 16.777)" clip-path="url(#c)" fill="#8E9193" d="M33.317 16.775h13.047v.004H33.317z"/><path transform="rotate(150.986 39.837 16.776)" clip-path="url(#c)" fill="#8D8F92" d="M33.31 16.773h13.055v.004H33.31z"/><path transform="rotate(150.986 39.833 16.774)" clip-path="url(#c)" fill="#8B8E90" d="M33.3 16.77h13.066v.005H33.3z"/><path clip-path="url(#c)" fill="#8B8D8F" d="M34.112 19.94l11.434-6.34v.003L34.12 19.94"/><path clip-path="url(#c)" fill="#898B8E" d="M45.546 13.595L34.104 19.94h.008l11.434-6.34"/><path transform="rotate(150.995 39.82 16.767)" clip-path="url(#c)" fill="#888A8C" d="M33.276 16.765h13.09v.004h-13.09z"/><path transform="rotate(150.986 39.82 16.766)" clip-path="url(#c)" fill="#87898C" d="M33.27 16.763h13.097v.004H33.27z"/><path transform="rotate(150.986 39.816 16.764)" clip-path="url(#c)" fill="#86878A" d="M33.263 16.76h13.105v.005H33.263z"/><path transform="rotate(150.982 39.812 16.76)" clip-path="url(#c)" fill="#858789" d="M33.258 16.76h13.11v.003h-13.11z"/><path clip-path="url(#c)" fill="#848689" d="M45.546 13.58l-11.473 6.36h.008l11.466-6.36"/><path transform="rotate(150.986 39.81 16.76)" clip-path="url(#c)" fill="#838588" d="M33.25 16.757h13.12v.004H33.25z"/><path clip-path="url(#c)" fill="#838487" d="M45.546 13.576l-11.48 6.363h.007l11.473-6.364"/><path transform="rotate(150.995 39.803 16.757)" clip-path="url(#c)" fill="#828486" d="M33.238 16.755h13.13v.004H33.24z"/><path transform="rotate(150.986 39.802 16.756)" clip-path="url(#c)" fill="#818386" d="M33.233 16.753H46.37v.004H33.233z"/><path transform="rotate(150.986 39.798 16.755)" clip-path="url(#c)" fill="#808184" d="M33.225 16.75H46.37v.005H33.225z"/><path transform="rotate(150.992 39.796 16.752)" clip-path="url(#c)" fill="#7E8082" d="M33.217 16.75H46.37v.004H33.218z"/><path clip-path="url(#c)" fill="#7D7F82" d="M34.034 19.94l11.512-6.384v.004l-11.504 6.38"/><path transform="rotate(150.995 39.785 16.747)" clip-path="url(#c)" fill="#7C7E80" d="M33.2 16.746h13.172v.004H33.2z"/><path transform="rotate(-29.014 39.784 16.744)" clip-path="url(#c)" fill="#7B7D7F" d="M33.198 16.742h13.177v.004H33.198z"/><path transform="rotate(150.986 39.78 16.745)" clip-path="url(#c)" fill="#7A7B7E" d="M33.187 16.742h13.186v.004H33.187z"/><path transform="rotate(150.982 39.777 16.742)" clip-path="url(#c)" fill="#797B7D" d="M33.183 16.74h13.19v.004h-13.19z"/><path transform="rotate(150.986 39.775 16.74)" clip-path="url(#c)" fill="#77797C" d="M33.175 16.738h13.2v.004h-13.2z"/><path clip-path="url(#c)" fill="#77787B" d="M33.995 19.94l11.55-6.403-11.542 6.402"/><path transform="rotate(150.986 39.77 16.738)" clip-path="url(#c)" fill="#76787A" d="M33.166 16.736h13.208v.004H33.166z"/><path clip-path="url(#c)" fill="#757779" d="M45.546 13.533l-11.56 6.406h.01l11.55-6.407"/><path transform="rotate(150.995 39.764 16.736)" clip-path="url(#c)" fill="#747678" d="M33.154 16.734h13.22v.004h-13.22z"/><path transform="rotate(150.986 39.763 16.735)" clip-path="url(#c)" fill="#747578" d="M33.15 16.732h13.226v.004H33.15z"/><path transform="rotate(150.992 39.76 16.733)" clip-path="url(#c)" fill="#727476" d="M33.142 16.73h13.235v.004H33.142z"/><path transform="rotate(150.986 39.757 16.73)" clip-path="url(#c)" fill="#717375" d="M33.137 16.728h13.24v.004h-13.24z"/><path clip-path="url(#c)" fill="#717275" d="M33.964 19.94l11.578-6.423h.004L33.968 19.94"/><path clip-path="url(#c)" fill="#707174" d="M45.538 13.517L33.956 19.94h.008l11.578-6.423"/><path transform="rotate(150.986 39.747 16.727)" clip-path="url(#c)" fill="#6F7073" d="M33.127 16.726h13.24v.004h-13.24z"/><path clip-path="url(#c)" fill="#6E7072" d="M33.948 19.94l11.578-6.423h.008L33.956 19.94"/><path clip-path="url(#c)" fill="#6D6F71" d="M33.944 19.94l11.578-6.423h.004L33.948 19.94"/><path clip-path="url(#c)" fill="#6D6E70" d="M33.94 19.94l11.58-6.423h.002L33.944 19.94"/><path clip-path="url(#c)" fill="#6C6D70" d="M33.937 19.94l11.578-6.423h.004L33.94 19.94"/><path clip-path="url(#c)" fill="#6B6C6F" d="M33.933 19.94l11.578-6.423h.005L33.937 19.94"/><path clip-path="url(#c)" fill="#6B6C6F" d="M33.894 19.94l11.578-6.423h.04L33.93 19.94"/><path clip-path="url(#c)" fill="#6A6C6E" d="M33.854 19.94l11.58-6.423h.038L33.894 19.94"/><path clip-path="url(#c)" fill="#696B6D" d="M45.397 13.517L33.82 19.94h.034l11.58-6.423"/><path clip-path="url(#c)" fill="#686A6C" d="M33.78 19.94l11.582-6.423h.035L33.82 19.94"/><path clip-path="url(#c)" fill="#68696B" d="M33.745 19.94l11.578-6.423h.04L33.78 19.94"/><path clip-path="url(#c)" fill="#67686A" d="M33.706 19.94l11.578-6.423h.04l-11.58 6.422"/><path clip-path="url(#c)" fill="#666769" d="M45.25 13.517L33.666 19.94h.04l11.577-6.423"/><path clip-path="url(#c)" fill="#656668" d="M33.632 19.94l11.578-6.423h.04L33.666 19.94"/><path clip-path="url(#c)" fill="#646568" d="M45.175 13.517L33.593 19.94h.04l11.577-6.423"/><path clip-path="url(#c)" fill="#636467" d="M45.136 13.517L33.558 19.94h.035l11.582-6.423"/><path clip-path="url(#c)" fill="#626366" d="M33.52 19.94l11.577-6.423h.04l-11.58 6.422"/><path clip-path="url(#c)" fill="#616265" d="M33.48 19.94l11.582-6.423h.035L33.52 19.94"/><path clip-path="url(#c)" fill="#606264" d="M33.44 19.94l11.582-6.423h.04L33.48 19.94"/><path clip-path="url(#c)" fill="#606163" d="M44.983 13.517L33.405 19.94h.035l11.582-6.423"/><path clip-path="url(#c)" fill="#5F6062" d="M33.37 19.94l11.578-6.423h.035L33.405 19.94"/><path clip-path="url(#c)" fill="#5F6062" d="M44.948 13.517L33.37 19.94h-.61v-6.423"/><path fill="#231F20" d="M36.95 20.045h-4.613l12.307-6.673 1.05 1.932-.096.052-8.648 4.69zm-3.762-.216h3.707l8.504-4.61-.843-1.554-11.37 6.163z"/><g><path fill="#6E6F71" d="M51.767 18.77c-.146 0-.293-.005-.44-.012-2.24-.116-4.302-1.098-5.804-2.765-1.502-1.666-2.266-3.817-2.15-6.057.24-4.612 4.17-8.196 8.823-7.953 4.624.242 8.19 4.2 7.952 8.82-.233 4.468-3.915 7.966-8.38 7.966zm-.013-15.866c-3.972 0-7.244 3.11-7.45 7.08-.103 1.992.575 3.905 1.91 5.386 1.336 1.48 3.168 2.354 5.16 2.457 4.104.217 7.63-2.97 7.842-7.07.213-4.11-2.958-7.627-7.07-7.842-.13-.007-.262-.01-.392-.01z"/></g><g><path fill="#007A45" d="M3.92 8.597c.298.19.726.336 1.183.336.68 0 1.076-.358 1.076-.878 0-.473-.276-.755-.97-1.015-.84-.304-1.358-.747-1.358-1.464 0-.802.664-1.397 1.663-1.397.52 0 .908.12 1.13.25l-.183.543c-.16-.1-.504-.244-.97-.244-.7 0-.968.42-.968.77 0 .48.313.717 1.022.993.87.334 1.305.754 1.305 1.51 0 .793-.58 1.488-1.792 1.488-.496 0-1.038-.152-1.313-.335l.176-.558z"/></g><g><path fill="#007A45" d="M8.114 7.68c.015.91.588 1.283 1.266 1.283.48 0 .78-.084 1.023-.19l.122.48c-.236.106-.65.236-1.235.236-1.137 0-1.816-.756-1.816-1.87 0-1.113.656-1.982 1.732-1.982 1.213 0 1.526 1.052 1.526 1.73 0 .14-.008.236-.023.313H8.113zm1.97-.48c.007-.42-.176-1.083-.932-1.083-.686 0-.976.618-1.03 1.083h1.96z"/></g><g><path fill="#007A45" d="M14.343 7.406h.016c.09-.13.213-.29.32-.42l1.09-1.272h.802l-1.42 1.516 1.625 2.175h-.824l-1.267-1.77-.344.38v1.39h-.664V3.988h.664v3.418z"/></g><g><path fill="#007A45" d="M20.597 7.528c0 1.366-.954 1.96-1.84 1.96-.99 0-1.77-.73-1.77-1.898 0-1.23.817-1.953 1.832-1.953 1.06 0 1.777.77 1.777 1.89m-2.922.04c0 .81.458 1.418 1.113 1.418.642 0 1.12-.603 1.12-1.434 0-.625-.312-1.41-1.104-1.41-.786 0-1.13.733-1.13 1.426"/></g><g><path fill="#007A45" d="M21.44 6.712c0-.39-.007-.693-.03-1h.595l.04.61h.015c.183-.342.61-.686 1.22-.686.513 0 1.306.305 1.306 1.57v2.198h-.672V7.276c0-.595-.222-1.09-.854-1.09-.435 0-.778.312-.9.686-.03.084-.046.198-.046.314v2.22h-.67V6.71z"/></g><g><path fill="#007A45" d="M26.48 4.828v.885h.962v.512h-.96v1.99c0 .458.128.718.5.718.186 0 .292-.016.392-.045l.03.51c-.13.046-.337.092-.595.092-.314 0-.565-.106-.727-.282-.183-.206-.26-.534-.26-.97V6.226h-.572v-.512h.574v-.687l.657-.198z"/></g><g><path fill="#007A45" d="M28.196 6.864c0-.435-.008-.81-.03-1.15h.587l.03.73h.022c.168-.495.58-.808 1.03-.808.07 0 .122.007.184.015v.635c-.07-.015-.138-.015-.23-.015-.472 0-.808.35-.9.854-.014.093-.022.206-.022.313v1.97h-.67V6.863z"/></g><g><path fill="#007A45" d="M34.03 7.528c0 1.366-.954 1.96-1.84 1.96-.99 0-1.77-.73-1.77-1.898 0-1.23.817-1.953 1.832-1.953 1.06 0 1.778.77 1.778 1.89m-2.922.04c0 .81.458 1.418 1.113 1.418.643 0 1.122-.603 1.122-1.434 0-.625-.313-1.41-1.105-1.41-.786 0-1.13.733-1.13 1.426"/></g><g><path fill="#007A45" d="M34.875 3.988h.67v5.417h-.67z"/></g><g><path fill="#007A45" d="M3.982 13.917c0-.435-.008-.81-.03-1.15h.587l.03.73h.022c.168-.495.58-.808 1.03-.808.07 0 .122.006.183.014v.634c-.07-.016-.137-.016-.23-.016-.472 0-.807.35-.9.854-.014.093-.022.206-.022.313v1.968h-.67v-2.54z"/></g><g><path fill="#007A45" d="M9.068 15.574c0 .32.016.633.054.885H8.52l-.053-.468h-.024c-.206.29-.603.55-1.13.55-.747 0-1.128-.526-1.128-1.06 0-.893.793-1.38 2.22-1.374v-.076c0-.298-.084-.854-.84-.848-.35 0-.71.1-.968.276l-.153-.45c.305-.192.755-.32 1.22-.32 1.13 0 1.404.77 1.404 1.502v1.382zm-.648-1c-.732-.016-1.564.113-1.564.832 0 .44.29.64.626.64.488 0 .8-.304.908-.618.022-.076.03-.152.03-.21v-.644z"/></g><g><path fill="#007A45" d="M10.15 13.972c0-.474-.016-.855-.03-1.205h.594l.038.632h.015c.267-.45.71-.71 1.313-.71.9 0 1.57.755 1.57 1.87 0 1.327-.815 1.983-1.685 1.983-.488 0-.916-.215-1.137-.58h-.015v2.008h-.664v-3.998zm.663.983c0 .102.008.19.03.275.123.465.527.787 1.008.787.71 0 1.122-.582 1.122-1.428 0-.734-.39-1.367-1.098-1.367-.458 0-.893.32-1.015.823-.024.084-.047.184-.047.268v.64z"/></g><g><path fill="#007A45" d="M14.487 13.972c0-.474-.016-.855-.03-1.205h.595l.04.632h.014c.267-.45.71-.71 1.313-.71.898 0 1.57.755 1.57 1.87 0 1.327-.817 1.983-1.687 1.983-.488 0-.916-.215-1.137-.58h-.016v2.008h-.664v-3.998zm.664.983c0 .102.01.19.032.275.12.465.525.787 1.007.787.708 0 1.12-.582 1.12-1.428 0-.734-.39-1.367-1.1-1.367-.456 0-.892.32-1.014.823-.022.084-.046.184-.046.268v.64z"/></g><g><path fill="#007A45" d="M22.167 14.582c0 1.365-.953 1.96-1.838 1.96-.993 0-1.772-.73-1.772-1.9 0-1.227.817-1.952 1.832-1.952 1.06 0 1.777.77 1.777 1.892m-2.922.037c0 .81.46 1.42 1.114 1.42.64 0 1.12-.605 1.12-1.435 0-.626-.312-1.413-1.106-1.413-.785 0-1.13.734-1.13 1.427"/></g><g><path fill="#007A45" d="M23.012 13.917c0-.435-.008-.81-.03-1.15h.588l.03.73h.022c.168-.495.58-.808 1.03-.808.068 0 .122.006.183.014v.634c-.07-.016-.137-.016-.23-.016-.47 0-.807.35-.898.854-.016.093-.023.206-.023.313v1.968h-.67v-2.54z"/></g><g><path fill="#007A45" d="M26.313 11.88v.886h.96v.512h-.96v1.992c0 .457.13.717.503.717.185 0 .29-.016.39-.045l.03.51c-.13.045-.336.092-.595.092-.312 0-.563-.105-.724-.283-.184-.204-.26-.532-.26-.968V13.28h-.572v-.513h.572v-.687l.657-.2z"/></g><g><path fill="#007A45" d="M.467 0h62.66v20.404H0V0h.467zm61.727.933H.934V19.47h61.26V.933z"/></g></svg>